# xmcd CD database file
#
# Track frame offsets:
#	182
#	14817
#	36237
#	56102
#	75162
#	103415
#	124767
#	136255
#	162677
#	185872
#	194545
#	220702
#	242705
#	262952
#	284212
#
# Disc length: 4005 seconds
#
# Revision: 0
# Processed by: cddbd v1.5PL3 Copyright (c) Steve Scherf et al.
# Submitted via: CDex 1.60beta1
#
DISCID=ed0fa30f
DTITLE=Ralph Sutton and Kenny Devern - Ralph Sutton and Kenny Devern
DYEAR=1998
DGENRE=Jazz
TTITLE0=That's A-Plenty
TTITLE1=Old Fashioned Love
TTITLE2=Jazz Me Blues
TTITLE3=Am I Blue
TTITLE4=St. Louis Blues
TTITLE5=Black and Blue
TTITLE6=Take Me to the Land of Jazz
TTITLE7=All by Myself
TTITLE8=My Honey's Lovin' Arms
TTITLE9='Tain't Nobody's Bizness If I Do
TTITLE10=My Daddy Rocks Me
TTITLE11=I Would Do Most Anything for You
TTITLE12=Sweet Lorraine
TTITLE13=Memphis Blues
TTITLE14=A Porter's Love Song to a Chambermaid
EXTD=YEAR: 1998
EXTT0=
EXTT1=
EXTT2=
EXTT3=
EXTT4=
EXTT5=
EXTT6=
EXTT7=
EXTT8=
EXTT9=
EXTT10=
EXTT11=
EXTT12=
EXTT13=
EXTT14=
PLAYORDER=
